<svg xmlns="http://www.w3.org/2000/svg" xmlns:xlink="http://www.w3.org/1999/xlink" viewBox="0 0 3724.89 2100"><defs><style>.cls-1{isolation:isolate;}.cls-2{fill:url(#linear-gradient);}.cls-3{fill:url(#linear-gradient-2);}.cls-4{fill:url(#linear-gradient-3);}.cls-5{fill:url(#linear-gradient-4);}.cls-6{fill:url(#linear-gradient-5);}.cls-7{fill:url(#linear-gradient-6);}.cls-8{fill:url(#linear-gradient-7);}.cls-9{fill:url(#linear-gradient-8);}.cls-10{mix-blend-mode:multiply;fill:url(#radial-gradient);}.cls-11{fill:url(#linear-gradient-9);}.cls-12{fill:url(#linear-gradient-10);}.cls-13{fill:url(#linear-gradient-11);}</style><linearGradient id="linear-gradient" x1="3054.42" y1="1941.81" x2="277.37" y2="-135.93" gradientUnits="userSpaceOnUse"><stop offset="0" stop-color="#00f2fe"/><stop offset="1" stop-color="#3b30b2"/></linearGradient><linearGradient id="linear-gradient-2" x1="1583.25" y1="2256.39" x2="-178.99" y2="664.29" xlink:href="#linear-gradient"/><linearGradient id="linear-gradient-3" x1="1455.85" y1="-376.67" x2="3534.78" y2="994.45" xlink:href="#linear-gradient"/><linearGradient id="linear-gradient-4" x1="3503.53" y1="1498.8" x2="3279.54" y2="1938.63" gradientUnits="userSpaceOnUse"><stop offset="0" stop-color="#21018f"/><stop offset="1" stop-color="#dc424c"/></linearGradient><linearGradient id="linear-gradient-5" x1="738.53" y1="1526.81" x2="1215.9" y2="1008.64" xlink:href="#linear-gradient-4"/><linearGradient id="linear-gradient-6" x1="-101.52" y1="1722.22" x2="1454.41" y2="1304.09" xlink:href="#linear-gradient-4"/><linearGradient id="linear-gradient-7" x1="257.46" y1="2312.56" x2="1560.1" y2="1761.76" xlink:href="#linear-gradient"/><linearGradient id="linear-gradient-8" x1="2493.51" y1="1010.83" x2="2957.9" y2="310.17" xlink:href="#linear-gradient-4"/><radialGradient id="radial-gradient" cx="3203.18" cy="1838.72" r="1069.34" gradientTransform="translate(-22.92 -1604.21) scale(1.01 0.81)" gradientUnits="userSpaceOnUse"><stop offset="0"/><stop offset="0.1" stop-color="#050505"/><stop offset="0.23" stop-color="#141414"/><stop offset="0.36" stop-color="#2c2c2c"/><stop offset="0.5" stop-color="#4e4e4e"/><stop offset="0.65" stop-color="#7a7a7a"/><stop offset="0.8" stop-color="#afafaf"/><stop offset="0.96" stop-color="#ededed"/><stop offset="1" stop-color="#fff"/></radialGradient><linearGradient id="linear-gradient-9" x1="3298" y1="-263.97" x2="2678.85" y2="282.81" xlink:href="#linear-gradient-4"/><linearGradient id="linear-gradient-10" x1="1356.49" y1="-82.01" x2="3157.86" y2="1330.75" xlink:href="#linear-gradient-4"/><linearGradient id="linear-gradient-11" x1="1880.61" y1="1450.24" x2="560.86" y2="2361.91" xlink:href="#linear-gradient"/></defs><g class="cls-1"><g id="Layer_1" data-name="Layer 1"><rect class="cls-2" width="3724.89" height="2100"/><path class="cls-3" d="M0,2100H2628.25c-170.5-69.22-430.69-238-672.67-649.56C1550.1,760.83,1119,1051.51,922.19,694.67,735.65,356.5,764.76,110.16,413.13,0H0Z" transform="translate(0)"/><path class="cls-4" d="M3724.89,0H908.41c228.58,31.85,621.45,121.81,809,371.91C1991,736.77,2254.83,1481,2913.22,1622.08c509.48,109.19,735.5,364.35,811.67,474.19Z" transform="translate(0)"/><path class="cls-5" d="M3337.25,2100h387.64V1632.56c-138.94-40.79-692.26-189.6-811.67-10.48C2913.22,1622.08,3291.5,1746,3337.25,2100Z" transform="translate(0)"/><path class="cls-6" d="M0,2100H2228.31c-75.3-167.44-356.65-721.54-829.77-842-559-142.33-625.94-348.82-738.14-725.7C580.88,265.16,302.37,23.14,0,138.16Z" transform="translate(0)"/><path class="cls-7" d="M0,2100H2219.82c-80.05-119.39-335.76-424.21-890.18-485.17C925.29,1570.37,808,1364.24,615.13,999.39,433.72,656.26,119.59,625.34,0,702.54Z" transform="translate(0)"/><path class="cls-8" d="M0,2100H1825.73C1209,1419.08,166.11,1892.44,0,1974.24Z" transform="translate(0)"/><path class="cls-9" d="M3724.89,519.58c-40.41-101.21-115.69-238.67-211.35-180.74-145.65,88.2-261.79,449.05-599.36,215.5C2708.29,411.9,2354.72,80.86,2128.55,0H1438.1c236.27,32.37,666.16,122.3,862,359.89,277.54,336.79,280.49,1181.77,658.42,1278,352.36,89.71,608.89-83.7,766.42,118.27Z" transform="translate(0)"/><path class="cls-10" d="M3724.89,519.58c-40.41-101.21-115.69-238.67-211.35-180.74-145.65,88.2-261.79,449.05-599.36,215.5C2708.29,411.9,2354.72,80.86,2128.55,0H1438.1c236.27,32.37,666.16,122.3,862,359.89,277.54,336.79,280.49,1181.77,658.42,1278,352.36,89.71,608.89-83.7,766.42,118.27Z" transform="translate(0)"/><path class="cls-11" d="M2496.08,0c60.31,67.55,291.18,315.83,467.31,363.89C3170.16,420.33,3243.32,142.23,3367.61,0Z" transform="translate(0)"/><path class="cls-12" d="M3724.89,1279.94c-583.59-47.84-959.6-382.16-1137.46-724C2405.31,206,1969.93,48.27,1806.71,0H1432.57C1667.84,31.83,2102,121.39,2299.06,360.5c277.54,336.79,280.5,1181.78,658.42,1278,353.1,89.91,610-84.41,767.41,119.56Z" transform="translate(0)"/><path class="cls-13" d="M1637.26,2100c-115.06-296.43-1010-99.78-1394.5,0Z" transform="translate(0)"/></g></g></svg>